<svg xmlns="http://www.w3.org/2000/svg" width="37.261" height="51.498" viewBox="0 0 37.261 51.498"><path d="M98.647,0H73.676a.836.836,0,0,0-.105.013h0a.836.836,0,0,0-.108.03l-.019.007a.835.835,0,0,0-.1.042L73.34.1a.827.827,0,0,0-.093.059l-.02.015a.843.843,0,0,0-.084.072h0l-8.9,8.9h0a.842.842,0,0,0-.072.084l-.015.02a.835.835,0,0,0-.059.093l0,.007a.842.842,0,0,0-.042.1l-.007.02a.82.82,0,0,0-.03.107v0a.862.862,0,0,0-.013.1c0,.01,0,.019,0,.029s0,.019,0,.028V48.884A2.617,2.617,0,0,0,66.614,51.5H98.647a2.617,2.617,0,0,0,2.614-2.614V2.614A2.617,2.617,0,0,0,98.647,0ZM72.9,2.848v5.1a.946.946,0,0,1-.945.945h-5.1ZM99.593,48.884a.946.946,0,0,1-.945.945H66.614a.946.946,0,0,1-.945-.945V10.567h6.284a2.617,2.617,0,0,0,2.614-2.614V1.668H98.647a.946.946,0,0,1,.945.945Z" transform="translate(-64)"/><path d="M128.834,113.668H150.19a.834.834,0,1,0,0-1.668H128.834a.834.834,0,0,0,0,1.668Z" transform="translate(-120.881 -99.543)"/><path d="M128.834,153.668H150.19a.834.834,0,1,0,0-1.668H128.834a.834.834,0,0,0,0,1.668Z" transform="translate(-120.881 -135.093)"/><path d="M128.834,193.668H150.19a.834.834,0,1,0,0-1.668H128.834a.834.834,0,0,0,0,1.668Z" transform="translate(-120.881 -170.644)"/><path d="M128.834,233.668H150.19a.834.834,0,1,0,0-1.668H128.834a.834.834,0,0,0,0,1.668Z" transform="translate(-120.881 -206.195)"/><path d="M128.834,273.668H150.19a.834.834,0,1,0,0-1.668H128.834a.834.834,0,0,0,0,1.668Z" transform="translate(-120.881 -241.746)"/><path d="M139.512,328H128.834a.834.834,0,0,0,0,1.668h10.678a.834.834,0,1,0,0-1.668Z" transform="translate(-120.881 -291.517)"/><path d="M139.512,368H128.834a.834.834,0,0,0,0,1.668h10.678a.834.834,0,1,0,0-1.668Z" transform="translate(-120.881 -327.068)"/><path d="M289.279,344a1.279,1.279,0,1,0,1.279,1.279A1.281,1.281,0,0,0,289.279,344Z" transform="translate(-263.085 -305.738)"/><path d="M260.838,312a4.838,4.838,0,1,0,4.838,4.838A4.844,4.844,0,0,0,260.838,312Zm0,8.008a3.17,3.17,0,1,1,3.17-3.17A3.174,3.174,0,0,1,260.838,320.008Z" transform="translate(-234.644 -277.297)"/></svg>