<svg xmlns="http://www.w3.org/2000/svg" width="15.279" height="11.628" viewBox="0 0 15.279 11.628"><defs><style>.a{fill:#d3d3d3;}</style></defs><g transform="translate(0 0)"><path class="a" d="M13.414,57.75H1.868A1.87,1.87,0,0,0,0,59.618v7.891a1.87,1.87,0,0,0,1.868,1.868H13.411a1.87,1.87,0,0,0,1.868-1.868V59.622A1.868,1.868,0,0,0,13.414,57.75Zm1.015,9.759a1.016,1.016,0,0,1-1.015,1.015H1.868A1.016,1.016,0,0,1,.854,67.509V59.622a1.016,1.016,0,0,1,1.015-1.015H13.411a1.016,1.016,0,0,1,1.015,1.015v7.888Z" transform="translate(0 -57.75)"/><path class="a" d="M63.626,113l3.737-3.351a.428.428,0,0,0-.572-.635l-5.153,4.625-1.005-.9s-.006-.006-.006-.009a.631.631,0,0,0-.07-.06l-4.091-3.661a.428.428,0,0,0-.569.639l3.781,3.38-3.765,3.525a.429.429,0,0,0-.019.6.437.437,0,0,0,.313.136.428.428,0,0,0,.291-.114l3.822-3.576,1.037.926a.426.426,0,0,0,.569,0l1.065-.955,3.8,3.61a.428.428,0,0,0,.6-.016.429.429,0,0,0-.016-.6Z" transform="translate(-53.99 -107.285)"/></g></svg>