<svg xmlns="http://www.w3.org/2000/svg" width="51.307" height="41.555" viewBox="0 0 51.307 41.555"><path d="M48.7,52.754a2.6,2.6,0,1,0,0-5.208H28.967A2.6,2.6,0,0,0,26.54,44H24.767a2.6,2.6,0,0,0-2.427,3.546H2.6a2.6,2.6,0,1,0,0,5.208H13.3v2.555l-3.143,7.859a1.718,1.718,0,0,0,1.023,2.258l12.429,4.387a6.171,6.171,0,0,0,4.094,0l12.429-4.387a1.718,1.718,0,0,0,1.023-2.258l-3.143-7.859V52.754H46.1V73.392a2.6,2.6,0,0,0-1.074,4.24,2.594,2.594,0,0,0-.7,1.773v5.319a.831.831,0,0,0,.831.831H48.7a.831.831,0,0,0,.831-.831V79.4a2.594,2.594,0,0,0-.7-1.773,2.6,2.6,0,0,0-1.074-4.24V52.754Zm-.831,31.139H45.988V79.4a.942.942,0,1,1,1.884,0ZM46.929,76.8a.942.942,0,1,1,.942-.942A.943.943,0,0,1,46.929,76.8Zm-23.1-30.2a.943.943,0,0,1,.942-.942H26.54a.942.942,0,0,1,0,1.884H24.767A.943.943,0,0,1,23.825,46.6ZM1.662,50.15a.943.943,0,0,1,.942-.942H48.7a.942.942,0,0,1,0,1.884H2.6A.943.943,0,0,1,1.662,50.15ZM39.608,63.829a.052.052,0,0,1-.032.029L27.147,68.245a4.5,4.5,0,0,1-2.987,0L11.73,63.858a.055.055,0,0,1-.033-.073L14.691,56.3H36.615l2.994,7.485A.052.052,0,0,1,39.608,63.829Zm-3.261-9.191H14.96V52.754H36.347Z" transform="translate(0 -44)"/></svg>