<svg xmlns="http://www.w3.org/2000/svg" width="51.307" height="51.307" viewBox="0 0 51.307 51.307"><path d="M51.3,35.44c0-.012,0-.023,0-.035s0-.005,0-.008c0-.019,0-.038,0-.057s0-.018,0-.027,0-.032-.007-.049,0-.023-.006-.035-.006-.025-.01-.037-.008-.03-.013-.044-.007-.019-.01-.029-.013-.034-.02-.05l0-.008-8.79-19.339V13.187H42.5a1.72,1.72,0,0,0,1.718-1.718v-.132a1.711,1.711,0,0,0-1.444-1.7L28.257,7.3V5.812a3.491,3.491,0,1,0-5.208,0V7.219L8.526,9.639a1.712,1.712,0,0,0-1.435,1.694v.136a1.72,1.72,0,0,0,1.718,1.718h.055v2.535L.074,35.061l0,.008c-.007.016-.014.033-.02.05l-.011.029c0,.015-.009.029-.013.044s-.007.025-.01.037,0,.023-.006.035S.006,35.3,0,35.313s0,.018,0,.028,0,.038,0,.056c0,0,0,.005,0,.008s0,.023,0,.035,0,.019,0,.028c.052,3.418,4.29,6.087,9.694,6.087s9.642-2.669,9.694-6.087c0-.009,0-.019,0-.028s0-.023,0-.035,0-.005,0-.008c0-.019,0-.038,0-.057s0-.018,0-.027,0-.032-.007-.049,0-.023-.006-.035-.006-.025-.01-.037-.008-.03-.013-.044-.007-.019-.01-.029-.013-.034-.02-.05l0-.008-8.79-19.339V13.187H23.048V31.243a1.718,1.718,0,0,0-.887,1.5V44.989L16.9,46.634A2.593,2.593,0,0,0,15.07,49.12v1.356a.831.831,0,0,0,.831.831H35.4a.831.831,0,0,0,.831-.831V49.12a2.593,2.593,0,0,0-1.827-2.486l-5.265-1.645V32.745a1.718,1.718,0,0,0-.887-1.5V13.187H40.778v2.535L31.988,35.061l0,.008c-.007.016-.014.033-.02.05l-.011.029c0,.015-.009.029-.013.044s-.007.025-.01.037,0,.023-.006.035-.006.032-.007.049,0,.018,0,.028,0,.038,0,.056c0,0,0,.005,0,.008s0,.023,0,.035,0,.019,0,.028c.052,3.418,4.29,6.087,9.694,6.087s9.642-2.669,9.694-6.087C51.3,35.458,51.3,35.449,51.3,35.44ZM9.7,17.91,17.27,34.574H2.121Zm0,21.983c-3.848,0-7.169-1.6-7.889-3.657H17.585C16.864,38.288,13.544,39.893,9.7,39.893Zm17.786-7.147V44.769H23.824V32.745a.055.055,0,0,1,.055-.055h3.546A.055.055,0,0,1,27.481,32.745Zm-2.77-1.718V6.851a3.472,3.472,0,0,0,1.884,0V31.028Zm.942-29.366a1.828,1.828,0,1,1-1.828,1.828A1.831,1.831,0,0,1,25.652,1.662ZM8.809,11.525a.055.055,0,0,1-.055-.055v-.136a.055.055,0,0,1,.046-.055L23.048,8.9v2.62ZM34.573,49.12v.525H16.732V49.12a.938.938,0,0,1,.661-.9l5.727-1.79h5.065l5.727,1.79A.938.938,0,0,1,34.573,49.12ZM28.257,8.984l14.248,2.3a.055.055,0,0,1,.047.055v.132a.055.055,0,0,1-.055.055H28.257ZM41.61,17.91l7.574,16.664H34.035Zm0,21.983c-3.848,0-7.169-1.6-7.889-3.657H49.5C48.778,38.288,45.458,39.893,41.61,39.893Z" transform="translate(0.001)"/></svg>