<svg xmlns="http://www.w3.org/2000/svg" width="174.039" height="118.711" viewBox="0 0 174.039 118.711"><defs><style>.a{fill:#d3d3d3;}</style></defs><g transform="translate(-2417.46 -2455.488)"><g transform="translate(2484.868 2455.488)"><path class="a" d="M0,0H39.225a2.038,2.038,0,0,1-2.038,2.038H2.038A2.038,2.038,0,0,1,0,0Z"/><path class="a" d="M0,0H33.5a2.038,2.038,0,0,1-2.038,2.038H2.038A2.038,2.038,0,0,1,0,0Z" transform="translate(2.86 4.736)"/><path class="a" d="M2.038,0H37.182A2.038,2.038,0,0,1,39.22,2.038H0A2.038,2.038,0,0,1,2.038,0Z" transform="translate(0 58.395)"/><path class="a" d="M2.038,0H31.462A2.038,2.038,0,0,1,33.5,2.038H0A2.038,2.038,0,0,1,2.038,0Z" transform="translate(2.86 53.659)"/></g><g transform="translate(2494.705 2466.745)"><g transform="translate(0 0)"><path class="a" d="M2609.567,2511.8a15.461,15.461,0,0,0-.281-4.129q-1.7-7.1-3.1-12.68c-.084-.28-.158-.549-.228-.811-1.206-5.2-.459-8.891,3.189-11.7a9.856,9.856,0,0,1,.95-.643,10.184,10.184,0,0,0-6.571,2.167,7.444,7.444,0,0,0-3.107,5,8.913,8.913,0,0,0,.322,3.807q.629,2.7,1.7,7.1.96,3.888,1.456,6.41c.1.421.178.816.24,1.2.615,4.541-.135,8.175-3.509,10.771a18.7,18.7,0,0,1-2.4,1.37,10.622,10.622,0,0,0,8.143-2.213A8.168,8.168,0,0,0,2609.567,2511.8Z" transform="translate(-2598.23 -2481.837)"/></g><g transform="translate(9.384 0)"><path class="a" d="M2631.547,2511.8a15.451,15.451,0,0,0-.28-4.129q-1.7-7.1-3.1-12.68c-.083-.28-.159-.549-.227-.811-1.206-5.2-.459-8.891,3.188-11.7a10.032,10.032,0,0,1,.95-.643,10.2,10.2,0,0,0-6.572,2.167,7.445,7.445,0,0,0-3.106,5,8.9,8.9,0,0,0,.324,3.807q.627,2.7,1.694,7.1.96,3.887,1.457,6.41c.1.421.177.816.24,1.2.616,4.541-.134,8.175-3.51,10.771a10.03,10.03,0,0,1-2.414,1.367h.014a10.621,10.621,0,0,0,8.143-2.213,8.166,8.166,0,0,0,3.2-5.636Z" transform="translate(-2620.194 -2481.836)"/></g></g><g transform="translate(2484.599 2493.625)"><path class="a" d="M2583.82,2554.823s-1.744,1.245,2.108,3.049c0,0-5.875,1.006-7.663-3.941-1.559-5.193,3.919-5.4,3.919-5.4" transform="translate(-2576.53 -2546.915)"/><ellipse class="a" cx="3.693" cy="3.566" rx="3.693" ry="3.566" transform="matrix(0.784, -0.62, 0.62, 0.784, 0, 4.581)"/></g><g transform="translate(2417.46 2534.51)"><path class="a" d="M2417.46,2659.593l1.3-.779c.719,1.818,2.454,2.685,4.734,2.685,2.945,0,4.936-1.5,4.936-4.388v-14.667h1.559v14.667c0,3.87-2.916,5.862-6.5,5.862C2420.722,2662.972,2418.442,2661.815,2417.46,2659.593Z" transform="translate(-2417.46 -2641.577)"/><path class="a" d="M2468.466,2655.956v14.44h-1.439v-2.743a5.435,5.435,0,0,1-5.169,3.06,5.322,5.322,0,0,1-5.6-5.773v-8.98h1.472v8.98a3.983,3.983,0,0,0,4.244,4.388c2.83,0,5.054-1.849,5.054-5.747v-7.622Z" transform="translate(-2439.676 -2649.316)"/><path class="a" d="M2495.242,2640.416h1.439V2661.5h-1.439Z" transform="translate(-2462.005 -2640.416)"/><path class="a" d="M2508.015,2643.574a1.151,1.151,0,1,1,.337.818,1.155,1.155,0,0,1-.337-.818Zm.433,4.649h1.438v14.436h-1.438Z" transform="translate(-2469.32 -2641.582)"/><path class="a" d="M2535.683,2655.531v14.437h-1.472v-3.26a6.943,6.943,0,0,1-6.208,3.58,7.536,7.536,0,0,1,0-15.071,6.941,6.941,0,0,1,6.207,3.58v-3.263Zm-1.472,7.218a6.052,6.052,0,1,0-1.752,4.358,6.107,6.107,0,0,0,1.752-4.358Z" transform="translate(-2476.489 -2648.89)"/><path class="a" d="M2582.282,2657.782l1.327-.779c.693,2.426,2.744,4.076,6.065,4.076,3.377,0,5.081-1.732,5.081-4.043,0-2.424-2.136-3.349-5.226-4.331-3.379-1.1-6.409-2.049-6.409-5.572,0-3.32,2.686-5.428,6.121-5.428a6.786,6.786,0,0,1,6.5,4.244l-1.3.72a5.312,5.312,0,0,0-5.2-3.494c-2.8,0-4.556,1.647-4.556,3.9,0,2.426,2.051,3.176,4.938,4.128,3.58,1.185,6.7,2.311,6.7,5.8,0,3.35-2.627,5.544-6.64,5.544C2585.891,2662.546,2583.207,2660.644,2582.282,2657.782Z" transform="translate(-2511.852 -2641.151)"/><path class="a" d="M2636.494,2662.808c0,.229-.029.461-.029.693h-13.08a5.875,5.875,0,0,0,6.121,5.4,5.49,5.49,0,0,0,5-2.627l1.271.75a7.114,7.114,0,0,1-6.295,3.262,7.536,7.536,0,0,1-.12-15.072C2633.751,2655.214,2636.494,2658.851,2636.494,2662.808Zm-13.109-.72h11.608a5.606,5.606,0,0,0-5.635-5.485,5.82,5.82,0,0,0-5.973,5.482Z" transform="translate(-2534.531 -2648.891)"/><path class="a" d="M2675.318,2655.956v14.44h-1.439v-2.743a5.439,5.439,0,0,1-5.169,3.06c-3.436,0-5.6-2.278-5.6-5.774v-8.98h1.472v8.98a3.984,3.984,0,0,0,4.245,4.388c2.83,0,5.052-1.849,5.052-5.747v-7.622Z" transform="translate(-2558.137 -2649.316)"/><path class="a" d="M2717.226,2655.435a7.434,7.434,0,0,1-7.479,7.537,6.841,6.841,0,0,1-6.207-3.667v3.35H2702.1v-20.212h1.438v9.123a6.844,6.844,0,0,1,6.207-3.667,7.434,7.434,0,0,1,7.479,7.535Zm-1.439,0a2.5,2.5,0,1,1-.006,0Z" transform="translate(-2580.466 -2641.577)"/><path class="a" d="M2758,2662.808c0,.229-.028.461-.028.693h-13.08a5.875,5.875,0,0,0,6.115,5.4,5.494,5.494,0,0,0,5-2.627l1.271.751a7.116,7.116,0,0,1-6.294,3.262,7.536,7.536,0,0,1-.12-15.072C2755.254,2655.214,2758,2658.851,2758,2662.808Zm-13.109-.72H2756.5a5.6,5.6,0,0,0-5.635-5.484,5.818,5.818,0,0,0-5.972,5.481Z" transform="translate(-2604.115 -2648.891)"/><path class="a" d="M2791.753,2655.484v1.386c-2.484,0-4.822,1.53-4.822,5.226v8.026h-1.438v-14.437h1.438v2.83A4.858,4.858,0,0,1,2791.753,2655.484Z" transform="translate(-2628.225 -2649.047)"/><path class="a" d="M2808.449,2651.953v9.383c0,2.541,1.357,2.6,4.3,2.34v1.3c-3.783.577-5.774-.347-5.774-3.638v-9.383H2803.8v-1.415h3.176v-3.609l1.472-.433v4.042h4.3v1.415Z" transform="translate(-2638.712 -2643.899)"/><g transform="translate(40.647 29.702)"><path class="a" d="M2516.283,2716.429h-2.975v3.863h-.719v-9.425h3.717a2.778,2.778,0,0,1,.714,5.467l2.343,3.957h-.822Zm-2.975-.674h3a2.107,2.107,0,1,0,0-4.213h-3Z" transform="translate(-2512.589 -2710.465)"/><path class="a" d="M2536.585,2720.365c0,.108-.013.216-.013.324h-6.1a2.74,2.74,0,0,0,2.855,2.518,2.561,2.561,0,0,0,2.328-1.225l.592.35a3.314,3.314,0,0,1-2.934,1.522,3.52,3.52,0,1,1,3.271-3.487Zm-6.115-.337h5.412a2.614,2.614,0,0,0-2.625-2.559,2.714,2.714,0,0,0-2.783,2.563Z" transform="translate(-2522.444 -2713.876)"/><path class="a" d="M2548.3,2720.338a3.448,3.448,0,0,1,3.54-3.514,3.152,3.152,0,0,1,2.936,1.723l-.552.323a2.557,2.557,0,0,0-2.382-1.4,2.868,2.868,0,1,0,0,5.736,2.691,2.691,0,0,0,2.423-1.4l.564.337a3.307,3.307,0,0,1-2.988,1.709,3.447,3.447,0,0,1-3.542-3.512Z" transform="translate(-2533.035 -2713.876)"/><path class="a" d="M2572.745,2716.106v4.187h-.687v-4.187a1.857,1.857,0,0,0-1.978-2.047c-1.32,0-2.357.862-2.357,2.678v3.555h-.674v-9.424h.674v3.972a2.536,2.536,0,0,1,2.41-1.427,2.481,2.481,0,0,1,2.612,2.692Z" transform="translate(-2543.772 -2710.465)"/><path class="a" d="M2585.285,2715.3v4.375c0,1.185.633,1.212,2.006,1.09v.607c-1.763.269-2.692-.162-2.692-1.7V2715.3h-1.481v-.659h1.481v-1.678l.687-.2v1.885h2.006v.659Z" transform="translate(-2552.974 -2711.547)"/><path class="a" d="M2599.681,2721.942c0,1.1-.969,1.911-2.408,1.911a2.534,2.534,0,0,1-2.557-1.494l.577-.337a1.919,1.919,0,0,0,1.979,1.184c.942,0,1.736-.417,1.736-1.266,0-1.831-4.076-.781-4.076-3.2a2.055,2.055,0,0,1,2.289-1.911,2.376,2.376,0,0,1,2.288,1.345l-.565.324a1.758,1.758,0,0,0-1.723-1.024c-.875,0-1.616.458-1.616,1.266C2595.6,2720.541,2599.681,2719.478,2599.681,2721.942Z" transform="translate(-2559.618 -2713.878)"/><path class="a" d="M2615.682,2716.972v6.731H2615v-1.521a3.236,3.236,0,0,1-2.894,1.669,3.514,3.514,0,1,1,0-7.028,3.238,3.238,0,0,1,2.894,1.669v-1.522Zm-.687,3.367a2.822,2.822,0,1,0-.817,2.031,2.847,2.847,0,0,0,.817-2.031Z" transform="translate(-2567.581 -2713.875)"/><path class="a" d="M2635.7,2719.517v4.186h-.687v-4.186a1.859,1.859,0,0,0-1.98-2.047c-1.319,0-2.355.863-2.355,2.68v3.554h-.674v-6.731h.674v1.279a2.534,2.534,0,0,1,2.41-1.427,2.481,2.481,0,0,1,2.612,2.692Z" transform="translate(-2579.829 -2713.876)"/><path class="a" d="M2655.714,2717.17l-2.127,6.731h-.74l-1.872-5.735-1.871,5.735h-.74l-2.127-6.731h.719l1.791,5.856,1.885-5.856h.7l1.885,5.856,1.79-5.856Z" transform="translate(-2589.124 -2714.073)"/><path class="a" d="M2677.257,2714.465v6.733h-.687v-1.522a3.238,3.238,0,0,1-2.895,1.669,3.514,3.514,0,0,1,0-7.028,3.237,3.237,0,0,1,2.894,1.671v-1.521Zm-.687,3.366a2.822,2.822,0,1,0-.817,2.032,2.848,2.848,0,0,0,.817-2.032Zm-4.537-4.886a.491.491,0,1,1,.492.491A.491.491,0,0,1,2672.034,2712.945Zm2.424,0a.492.492,0,1,1,.492.473.493.493,0,0,1-.492-.473Z" transform="translate(-2602.844 -2711.37)"/><path class="a" d="M2691.582,2709.924h.672v9.831h-.672Z" transform="translate(-2615.093 -2709.924)"/><path class="a" d="M2698.477,2715.3v4.375c0,1.185.633,1.212,2.006,1.09v.607c-1.763.269-2.693-.162-2.693-1.7V2715.3h-1.481v-.659h1.481v-1.678l.687-.2v1.885h2.006v.659Z" transform="translate(-2617.8 -2711.547)"/><path class="a" d="M2709.386,2711.4a.538.538,0,1,1,.539.538A.539.539,0,0,1,2709.386,2711.4Zm.2,2.168h.674v6.731h-.674Z" transform="translate(-2625.289 -2710.467)"/><path class="a" d="M2721.981,2719.517v4.186h-.687v-4.186a1.857,1.857,0,0,0-1.979-2.047c-1.319,0-2.356.863-2.356,2.68v3.554h-.674v-6.731h.674v1.279a2.534,2.534,0,0,1,2.41-1.427,2.482,2.482,0,0,1,2.612,2.692Z" transform="translate(-2629.24 -2713.876)"/></g></g></g></svg>