<svg xmlns="http://www.w3.org/2000/svg" width="10.803" height="13.469" viewBox="0 0 10.803 13.469"><defs><style>.a{fill:#d3d3d3;}</style></defs><g transform="translate(0)"><path class="a" d="M52.6,0a5.406,5.406,0,0,0-5.4,5.4,5.314,5.314,0,0,0,.1,1.014c0,.02.014.079.037.181a5.317,5.317,0,0,0,.361,1.065,15.135,15.135,0,0,0,4.668,5.726.382.382,0,0,0,.48,0,15.163,15.163,0,0,0,4.668-5.726,5.257,5.257,0,0,0,.361-1.065c.023-.1.034-.161.037-.181A5.552,5.552,0,0,0,58,5.4,5.414,5.414,0,0,0,52.6,0Zm4.552,6.28c0,.006,0,.011,0,.017s-.011.056-.025.121v.006a4.482,4.482,0,0,1-.313.921s0,.008-.006.011A14.124,14.124,0,0,1,52.6,12.6a14.124,14.124,0,0,1-4.2-5.241s0-.008-.006-.011a4.782,4.782,0,0,1-.313-.921V6.418c-.017-.065-.023-.107-.025-.121s0-.011,0-.02a4.636,4.636,0,1,1,9.1,0Z" transform="translate(-47.2)"/><path class="a" d="M120.428,71.9a3.428,3.428,0,1,0,3.428,3.428A3.433,3.433,0,0,0,120.428,71.9Zm0,6.093a2.666,2.666,0,1,1,2.666-2.666A2.669,2.669,0,0,1,120.428,77.993Z" transform="translate(-115.029 -69.87)"/></g></svg>