<svg xmlns="http://www.w3.org/2000/svg" width="24.5" height="17.131" viewBox="0 0 24.5 17.131"><defs><style>.a{fill:#fff;}</style></defs><g transform="translate(0 -77)"><g transform="translate(0 77)"><g transform="translate(0 0)"><path class="a" d="M5.742,77a5.742,5.742,0,0,0-.251,11.479c.007.091.012.217.012.389a24.916,24.916,0,0,1-.873,4.046l-.345,1.218H8.476l.281-.452a22.163,22.163,0,0,0,2.728-10.936A5.749,5.749,0,0,0,5.742,77ZM7.378,92.217H6.8a18.1,18.1,0,0,0,.619-3.35,3.106,3.106,0,0,0-.265-1.5,1.532,1.532,0,0,0-1.444-.8H5.666a3.828,3.828,0,1,1,3.9-3.827A21.273,21.273,0,0,1,7.378,92.217Z" transform="translate(0 -77)"/></g></g><g transform="translate(13.016 77)"><g transform="translate(0 0)"><path class="a" d="M277.742,77a5.742,5.742,0,0,0-.251,11.479c.007.091.012.217.012.389a24.919,24.919,0,0,1-.873,4.046l-.345,1.218h4.191l.281-.452a22.163,22.163,0,0,0,2.728-10.936A5.749,5.749,0,0,0,277.742,77Zm1.636,15.217h-.58a18.1,18.1,0,0,0,.619-3.35,3.106,3.106,0,0,0-.265-1.5,1.532,1.532,0,0,0-1.444-.8h-.042a3.828,3.828,0,1,1,3.9-3.827A21.273,21.273,0,0,1,279.378,92.217Z" transform="translate(-272 -77)"/></g></g></g></svg>