<svg xmlns="http://www.w3.org/2000/svg" width="8.112" height="13.469" viewBox="0 0 8.112 13.469"><defs><style>.a{fill:#d3d3d3;}</style></defs><g transform="translate(0)"><path class="a" d="M105.462,12.421V1.046A1.047,1.047,0,0,0,104.416,0H98.4A1.047,1.047,0,0,0,97.35,1.046V12.423A1.047,1.047,0,0,0,98.4,13.469h6.02A1.051,1.051,0,0,0,105.462,12.421Zm-7.437-10h6.761v7.655H98.024ZM98.4.674h6.02a.372.372,0,0,1,.371.371v.7H98.024v-.7A.372.372,0,0,1,98.4.674Zm-.371,11.746V10.75h6.761v1.67a.372.372,0,0,1-.371.371H98.4A.372.372,0,0,1,98.024,12.421Z" transform="translate(-97.35)"/><path class="a" d="M209.256,416.6h-1.368a.338.338,0,0,0,0,.677h1.368a.338.338,0,1,0,0-.677Z" transform="translate(-204.518 -405.137)"/></g></svg>