<svg xmlns="http://www.w3.org/2000/svg" width="13.418" height="13.469" viewBox="0 0 13.418 13.469"><defs><style>.a{fill:#d3d3d3;}</style></defs><path class="a" d="M3.631,8.953a14.289,14.289,0,0,0,4.753,3.723,7.4,7.4,0,0,0,2.66.787c.064,0,.126.006.19.006a2.2,2.2,0,0,0,1.708-.734.061.061,0,0,0,.011-.014,7.192,7.192,0,0,1,.539-.558c.131-.126.265-.257.394-.391a1.348,1.348,0,0,0-.006-2.007L12.2,8.088a1.358,1.358,0,0,0-.982-.452,1.4,1.4,0,0,0-.994.449l-1,1c-.092-.053-.187-.1-.276-.145a3.451,3.451,0,0,1-.307-.167,10.574,10.574,0,0,1-2.526-2.3A6.089,6.089,0,0,1,5.263,5.11c.262-.237.508-.486.745-.728.084-.087.17-.173.257-.26a1.431,1.431,0,0,0,.463-1,1.419,1.419,0,0,0-.463-1l-.832-.832c-.1-.1-.19-.193-.285-.29C4.965.8,4.772.606,4.582.43A1.391,1.391,0,0,0,3.6,0a1.432,1.432,0,0,0-.994.433L1.563,1.476A2.145,2.145,0,0,0,.924,2.85a5.165,5.165,0,0,0,.388,2.233A12.989,12.989,0,0,0,3.631,8.953ZM1.6,2.908a1.476,1.476,0,0,1,.444-.949L3.086.921A.752.752,0,0,1,3.6.684a.713.713,0,0,1,.5.243c.187.173.363.354.553.547l.29.3.832.832a.758.758,0,0,1,.262.522.758.758,0,0,1-.262.522l-.26.262c-.26.262-.5.511-.77.748l-.014.014a.546.546,0,0,0-.14.62l.008.022A6.568,6.568,0,0,0,5.582,6.9a11.16,11.16,0,0,0,2.69,2.45,4,4,0,0,0,.368.2,3.451,3.451,0,0,1,.307.167l.031.017a.583.583,0,0,0,.271.07.592.592,0,0,0,.416-.19l1.044-1.044a.739.739,0,0,1,.511-.248.7.7,0,0,1,.494.248l1.683,1.68a.673.673,0,0,1-.008,1.052c-.117.126-.24.246-.371.371a8.037,8.037,0,0,0-.583.606,1.532,1.532,0,0,1-1.2.508c-.047,0-.1,0-.145-.006a6.72,6.72,0,0,1-2.406-.72A13.575,13.575,0,0,1,4.161,8.523a12.433,12.433,0,0,1-2.2-3.67A4.5,4.5,0,0,1,1.6,2.908Z" transform="translate(-0.912 0)"/></svg>